<svg xmlns="http://www.w3.org/2000/svg" viewBox="0 0 200 240" width="200" height="240"><defs><clipPath id="blason-shield"><path d="M6 6 H194 V128 C194 186 150 220 100 234 C50 220 6 186 6 128 Z"/></clipPath></defs><g clip-path="url(#blason-shield)"><path d="M6 6 H194 V128 C194 186 150 220 100 234 C50 220 6 186 6 128 Z" fill="#ffffff"/><path d="M-28 -2 A13 13 0 1 0 -8 -2 A10.5 10.5 0 1 1 -28 -2 Z" fill="#000000"/><path d="M20 -2 A13 13 0 1 0 40 -2 A10.5 10.5 0 1 1 20 -2 Z" fill="#000000"/><path d="M68 -2 A13 13 0 1 0 88 -2 A10.5 10.5 0 1 1 68 -2 Z" fill="#000000"/><path d="M116 -2 A13 13 0 1 0 136 -2 A10.5 10.5 0 1 1 116 -2 Z" fill="#000000"/><path d="M164 -2 A13 13 0 1 0 184 -2 A10.5 10.5 0 1 1 164 -2 Z" fill="#000000"/><path d="M212 -2 A13 13 0 1 0 232 -2 A10.5 10.5 0 1 1 212 -2 Z" fill="#000000"/><path d="M-4 32 A13 13 0 1 0 16 32 A10.5 10.5 0 1 1 -4 32 Z" fill="#000000"/><path d="M44 32 A13 13 0 1 0 64 32 A10.5 10.5 0 1 1 44 32 Z" fill="#000000"/><path d="M92 32 A13 13 0 1 0 112 32 A10.5 10.5 0 1 1 92 32 Z" fill="#000000"/><path d="M140 32 A13 13 0 1 0 160 32 A10.5 10.5 0 1 1 140 32 Z" fill="#000000"/><path d="M188 32 A13 13 0 1 0 208 32 A10.5 10.5 0 1 1 188 32 Z" fill="#000000"/><path d="M236 32 A13 13 0 1 0 256 32 A10.5 10.5 0 1 1 236 32 Z" fill="#000000"/><path d="M-28 66 A13 13 0 1 0 -8 66 A10.5 10.5 0 1 1 -28 66 Z" fill="#000000"/><path d="M20 66 A13 13 0 1 0 40 66 A10.5 10.5 0 1 1 20 66 Z" fill="#000000"/><path d="M68 66 A13 13 0 1 0 88 66 A10.5 10.5 0 1 1 68 66 Z" fill="#000000"/><path d="M116 66 A13 13 0 1 0 136 66 A10.5 10.5 0 1 1 116 66 Z" fill="#000000"/><path d="M164 66 A13 13 0 1 0 184 66 A10.5 10.5 0 1 1 164 66 Z" fill="#000000"/><path d="M212 66 A13 13 0 1 0 232 66 A10.5 10.5 0 1 1 212 66 Z" fill="#000000"/><path d="M-4 100 A13 13 0 1 0 16 100 A10.5 10.5 0 1 1 -4 100 Z" fill="#000000"/><path d="M44 100 A13 13 0 1 0 64 100 A10.5 10.5 0 1 1 44 100 Z" fill="#000000"/><path d="M92 100 A13 13 0 1 0 112 100 A10.5 10.5 0 1 1 92 100 Z" fill="#000000"/><path d="M140 100 A13 13 0 1 0 160 100 A10.5 10.5 0 1 1 140 100 Z" fill="#000000"/><path d="M188 100 A13 13 0 1 0 208 100 A10.5 10.5 0 1 1 188 100 Z" fill="#000000"/><path d="M236 100 A13 13 0 1 0 256 100 A10.5 10.5 0 1 1 236 100 Z" fill="#000000"/><path d="M-28 134 A13 13 0 1 0 -8 134 A10.5 10.5 0 1 1 -28 134 Z" fill="#000000"/><path d="M20 134 A13 13 0 1 0 40 134 A10.5 10.5 0 1 1 20 134 Z" fill="#000000"/><path d="M68 134 A13 13 0 1 0 88 134 A10.5 10.5 0 1 1 68 134 Z" fill="#000000"/><path d="M116 134 A13 13 0 1 0 136 134 A10.5 10.5 0 1 1 116 134 Z" fill="#000000"/><path d="M164 134 A13 13 0 1 0 184 134 A10.5 10.5 0 1 1 164 134 Z" fill="#000000"/><path d="M212 134 A13 13 0 1 0 232 134 A10.5 10.5 0 1 1 212 134 Z" fill="#000000"/><path d="M-4 168 A13 13 0 1 0 16 168 A10.5 10.5 0 1 1 -4 168 Z" fill="#000000"/><path d="M44 168 A13 13 0 1 0 64 168 A10.5 10.5 0 1 1 44 168 Z" fill="#000000"/><path d="M92 168 A13 13 0 1 0 112 168 A10.5 10.5 0 1 1 92 168 Z" fill="#000000"/><path d="M140 168 A13 13 0 1 0 160 168 A10.5 10.5 0 1 1 140 168 Z" fill="#000000"/><path d="M188 168 A13 13 0 1 0 208 168 A10.5 10.5 0 1 1 188 168 Z" fill="#000000"/><path d="M236 168 A13 13 0 1 0 256 168 A10.5 10.5 0 1 1 236 168 Z" fill="#000000"/><path d="M-28 202 A13 13 0 1 0 -8 202 A10.5 10.5 0 1 1 -28 202 Z" fill="#000000"/><path d="M20 202 A13 13 0 1 0 40 202 A10.5 10.5 0 1 1 20 202 Z" fill="#000000"/><path d="M68 202 A13 13 0 1 0 88 202 A10.5 10.5 0 1 1 68 202 Z" fill="#000000"/><path d="M116 202 A13 13 0 1 0 136 202 A10.5 10.5 0 1 1 116 202 Z" fill="#000000"/><path d="M164 202 A13 13 0 1 0 184 202 A10.5 10.5 0 1 1 164 202 Z" fill="#000000"/><path d="M212 202 A13 13 0 1 0 232 202 A10.5 10.5 0 1 1 212 202 Z" fill="#000000"/><path d="M-4 236 A13 13 0 1 0 16 236 A10.5 10.5 0 1 1 -4 236 Z" fill="#000000"/><path d="M44 236 A13 13 0 1 0 64 236 A10.5 10.5 0 1 1 44 236 Z" fill="#000000"/><path d="M92 236 A13 13 0 1 0 112 236 A10.5 10.5 0 1 1 92 236 Z" fill="#000000"/><path d="M140 236 A13 13 0 1 0 160 236 A10.5 10.5 0 1 1 140 236 Z" fill="#000000"/><path d="M188 236 A13 13 0 1 0 208 236 A10.5 10.5 0 1 1 188 236 Z" fill="#000000"/><path d="M236 236 A13 13 0 1 0 256 236 A10.5 10.5 0 1 1 236 236 Z" fill="#000000"/><polygon points="-86,0 -51,0 149,240 114,240" fill="#ff0000"/><polygon points="-17,0 17,0 217,240 183,240" fill="#ff0000"/><polygon points="51,0 86,0 286,240 251,240" fill="#ff0000"/></g><path d="M6 6 H194 V128 C194 186 150 220 100 234 C50 220 6 186 6 128 Z" fill="none" stroke="#6e7781" stroke-width="3"/></svg>