<svg xmlns="http://www.w3.org/2000/svg" viewBox="0 0 200 240" width="200" height="240"><defs><clipPath id="blason-shield"><path d="M6 6 H194 V128 C194 186 150 220 100 234 C50 220 6 186 6 128 Z"/></clipPath></defs><g clip-path="url(#blason-shield)"><path d="M 0 0 H 100 V 240 H 0 Z" fill="#ff0000"/><path d="M 100 0 H 200 V 240 H 100 Z" fill="#008000"/><clipPath id="blason-part-1"><path d="M 0 0 H 100 V 240 H 0 Z"/></clipPath><g clip-path="url(#blason-part-1)"><path d="M-15.4 -7 C-17.5 -5.4 -18.5 -3.9 -18.3 -1.8 C-18 0.3 -15.9 1.8 -13.6 2.9 C-11.2 4.4 -9.9 6.8 -9.9 10.9 C-9.9 15.4 -13.6 19 -18 19 C-22.4 19 -26.1 15.4 -26.1 10.9 C-26.1 7.3 -24.2 4.4 -21.9 2.6 C-20.9 1.1 -20.6 -0.8 -20.3 -2.3 C-20.1 -4.4 -18 -5.7 -15.4 -7 Z" fill="#ffffff"/><path d="M32.6 -7 C30.5 -5.4 29.5 -3.9 29.7 -1.8 C30 0.3 32.1 1.8 34.4 2.9 C36.8 4.4 38.1 6.8 38.1 10.9 C38.1 15.4 34.4 19 30 19 C25.6 19 21.9 15.4 21.9 10.9 C21.9 7.3 23.8 4.4 26.1 2.6 C27.1 1.1 27.4 -0.8 27.7 -2.3 C27.9 -4.4 30 -5.7 32.6 -7 Z" fill="#ffffff"/><path d="M80.6 -7 C78.5 -5.4 77.5 -3.9 77.7 -1.8 C78 0.3 80.1 1.8 82.4 2.9 C84.8 4.4 86.1 6.8 86.1 10.9 C86.1 15.4 82.4 19 78 19 C73.6 19 69.9 15.4 69.9 10.9 C69.9 7.3 71.8 4.4 74.1 2.6 C75.1 1.1 75.4 -0.8 75.7 -2.3 C75.9 -4.4 78 -5.7 80.6 -7 Z" fill="#ffffff"/><path d="M128.6 -7 C126.5 -5.4 125.5 -3.9 125.7 -1.8 C126 0.3 128.1 1.8 130.4 2.9 C132.8 4.4 134.1 6.8 134.1 10.9 C134.1 15.4 130.4 19 126 19 C121.6 19 117.9 15.4 117.9 10.9 C117.9 7.3 119.8 4.4 122.1 2.6 C123.1 1.1 123.4 -0.8 123.7 -2.3 C123.9 -4.4 126 -5.7 128.6 -7 Z" fill="#ffffff"/><path d="M176.6 -7 C174.5 -5.4 173.5 -3.9 173.7 -1.8 C174 0.3 176.1 1.8 178.4 2.9 C180.8 4.4 182.1 6.8 182.1 10.9 C182.1 15.4 178.4 19 174 19 C169.6 19 165.9 15.4 165.9 10.9 C165.9 7.3 167.8 4.4 170.1 2.6 C171.1 1.1 171.4 -0.8 171.7 -2.3 C171.9 -4.4 174 -5.7 176.6 -7 Z" fill="#ffffff"/><path d="M224.6 -7 C222.5 -5.4 221.5 -3.9 221.7 -1.8 C222 0.3 224.1 1.8 226.4 2.9 C228.8 4.4 230.1 6.8 230.1 10.9 C230.1 15.4 226.4 19 222 19 C217.6 19 213.9 15.4 213.9 10.9 C213.9 7.3 215.8 4.4 218.1 2.6 C219.1 1.1 219.4 -0.8 219.7 -2.3 C219.9 -4.4 222 -5.7 224.6 -7 Z" fill="#ffffff"/><path d="M8.6 27 C6.5 28.6 5.5 30.1 5.7 32.2 C6 34.3 8.1 35.8 10.4 36.9 C12.8 38.4 14.1 40.8 14.1 44.9 C14.1 49.4 10.4 53 6 53 C1.6 53 -2.1 49.4 -2.1 44.9 C-2.1 41.3 -0.2 38.4 2.1 36.6 C3.1 35.1 3.4 33.2 3.7 31.7 C3.9 29.6 6 28.3 8.6 27 Z" fill="#ffffff"/><path d="M56.6 27 C54.5 28.6 53.5 30.1 53.7 32.2 C54 34.3 56.1 35.8 58.4 36.9 C60.8 38.4 62.1 40.8 62.1 44.9 C62.1 49.4 58.4 53 54 53 C49.6 53 45.9 49.4 45.9 44.9 C45.9 41.3 47.8 38.4 50.1 36.6 C51.1 35.1 51.4 33.2 51.7 31.7 C51.9 29.6 54 28.3 56.6 27 Z" fill="#ffffff"/><path d="M104.6 27 C102.5 28.6 101.5 30.1 101.7 32.2 C102 34.3 104.1 35.8 106.4 36.9 C108.8 38.4 110.1 40.8 110.1 44.9 C110.1 49.4 106.4 53 102 53 C97.6 53 93.9 49.4 93.9 44.9 C93.9 41.3 95.8 38.4 98.1 36.6 C99.1 35.1 99.4 33.2 99.7 31.7 C99.9 29.6 102 28.3 104.6 27 Z" fill="#ffffff"/><path d="M152.6 27 C150.5 28.6 149.5 30.1 149.7 32.2 C150 34.3 152.1 35.8 154.4 36.9 C156.8 38.4 158.1 40.8 158.1 44.9 C158.1 49.4 154.4 53 150 53 C145.6 53 141.9 49.4 141.9 44.9 C141.9 41.3 143.8 38.4 146.1 36.6 C147.1 35.1 147.4 33.2 147.7 31.7 C147.9 29.6 150 28.3 152.6 27 Z" fill="#ffffff"/><path d="M200.6 27 C198.5 28.6 197.5 30.1 197.7 32.2 C198 34.3 200.1 35.8 202.4 36.9 C204.8 38.4 206.1 40.8 206.1 44.9 C206.1 49.4 202.4 53 198 53 C193.6 53 189.9 49.4 189.9 44.9 C189.9 41.3 191.8 38.4 194.1 36.6 C195.1 35.1 195.4 33.2 195.7 31.7 C195.9 29.6 198 28.3 200.6 27 Z" fill="#ffffff"/><path d="M248.6 27 C246.5 28.6 245.5 30.1 245.7 32.2 C246 34.3 248.1 35.8 250.4 36.9 C252.8 38.4 254.1 40.8 254.1 44.9 C254.1 49.4 250.4 53 246 53 C241.6 53 237.9 49.4 237.9 44.9 C237.9 41.3 239.8 38.4 242.1 36.6 C243.1 35.1 243.4 33.2 243.7 31.7 C243.9 29.6 246 28.3 248.6 27 Z" fill="#ffffff"/><path d="M-15.4 61 C-17.5 62.6 -18.5 64.1 -18.3 66.2 C-18 68.3 -15.9 69.8 -13.6 70.9 C-11.2 72.4 -9.9 74.8 -9.9 78.9 C-9.9 83.4 -13.6 87 -18 87 C-22.4 87 -26.1 83.4 -26.1 78.9 C-26.1 75.3 -24.2 72.4 -21.9 70.6 C-20.9 69.1 -20.6 67.2 -20.3 65.7 C-20.1 63.6 -18 62.3 -15.4 61 Z" fill="#ffffff"/><path d="M32.6 61 C30.5 62.6 29.5 64.1 29.7 66.2 C30 68.3 32.1 69.8 34.4 70.9 C36.8 72.4 38.1 74.8 38.1 78.9 C38.1 83.4 34.4 87 30 87 C25.6 87 21.9 83.4 21.9 78.9 C21.9 75.3 23.8 72.4 26.1 70.6 C27.1 69.1 27.4 67.2 27.7 65.7 C27.9 63.6 30 62.3 32.6 61 Z" fill="#ffffff"/><path d="M80.6 61 C78.5 62.6 77.5 64.1 77.7 66.2 C78 68.3 80.1 69.8 82.4 70.9 C84.8 72.4 86.1 74.8 86.1 78.9 C86.1 83.4 82.4 87 78 87 C73.6 87 69.9 83.4 69.9 78.9 C69.9 75.3 71.8 72.4 74.1 70.6 C75.1 69.1 75.4 67.2 75.7 65.7 C75.9 63.6 78 62.3 80.6 61 Z" fill="#ffffff"/><path d="M128.6 61 C126.5 62.6 125.5 64.1 125.7 66.2 C126 68.3 128.1 69.8 130.4 70.9 C132.8 72.4 134.1 74.8 134.1 78.9 C134.1 83.4 130.4 87 126 87 C121.6 87 117.9 83.4 117.9 78.9 C117.9 75.3 119.8 72.4 122.1 70.6 C123.1 69.1 123.4 67.2 123.7 65.7 C123.9 63.6 126 62.3 128.6 61 Z" fill="#ffffff"/><path d="M176.6 61 C174.5 62.6 173.5 64.1 173.7 66.2 C174 68.3 176.1 69.8 178.4 70.9 C180.8 72.4 182.1 74.8 182.1 78.9 C182.1 83.4 178.4 87 174 87 C169.6 87 165.9 83.4 165.9 78.9 C165.9 75.3 167.8 72.4 170.1 70.6 C171.1 69.1 171.4 67.2 171.7 65.7 C171.9 63.6 174 62.3 176.6 61 Z" fill="#ffffff"/><path d="M224.6 61 C222.5 62.6 221.5 64.1 221.7 66.2 C222 68.3 224.1 69.8 226.4 70.9 C228.8 72.4 230.1 74.8 230.1 78.9 C230.1 83.4 226.4 87 222 87 C217.6 87 213.9 83.4 213.9 78.9 C213.9 75.3 215.8 72.4 218.1 70.6 C219.1 69.1 219.4 67.2 219.7 65.7 C219.9 63.6 222 62.3 224.6 61 Z" fill="#ffffff"/><path d="M8.6 95 C6.5 96.6 5.5 98.1 5.7 100.2 C6 102.3 8.1 103.8 10.4 104.9 C12.8 106.4 14.1 108.8 14.1 112.9 C14.1 117.4 10.4 121 6 121 C1.6 121 -2.1 117.4 -2.1 112.9 C-2.1 109.3 -0.2 106.4 2.1 104.6 C3.1 103.1 3.4 101.2 3.7 99.7 C3.9 97.6 6 96.3 8.6 95 Z" fill="#ffffff"/><path d="M56.6 95 C54.5 96.6 53.5 98.1 53.7 100.2 C54 102.3 56.1 103.8 58.4 104.9 C60.8 106.4 62.1 108.8 62.1 112.9 C62.1 117.4 58.4 121 54 121 C49.6 121 45.9 117.4 45.9 112.9 C45.9 109.3 47.8 106.4 50.1 104.6 C51.1 103.1 51.4 101.2 51.7 99.7 C51.9 97.6 54 96.3 56.6 95 Z" fill="#ffffff"/><path d="M104.6 95 C102.5 96.6 101.5 98.1 101.7 100.2 C102 102.3 104.1 103.8 106.4 104.9 C108.8 106.4 110.1 108.8 110.1 112.9 C110.1 117.4 106.4 121 102 121 C97.6 121 93.9 117.4 93.9 112.9 C93.9 109.3 95.8 106.4 98.1 104.6 C99.1 103.1 99.4 101.2 99.7 99.7 C99.9 97.6 102 96.3 104.6 95 Z" fill="#ffffff"/><path d="M152.6 95 C150.5 96.6 149.5 98.1 149.7 100.2 C150 102.3 152.1 103.8 154.4 104.9 C156.8 106.4 158.1 108.8 158.1 112.9 C158.1 117.4 154.4 121 150 121 C145.6 121 141.9 117.4 141.9 112.9 C141.9 109.3 143.8 106.4 146.1 104.6 C147.1 103.1 147.4 101.2 147.7 99.7 C147.9 97.6 150 96.3 152.6 95 Z" fill="#ffffff"/><path d="M200.6 95 C198.5 96.6 197.5 98.1 197.7 100.2 C198 102.3 200.1 103.8 202.4 104.9 C204.8 106.4 206.1 108.8 206.1 112.9 C206.1 117.4 202.4 121 198 121 C193.6 121 189.9 117.4 189.9 112.9 C189.9 109.3 191.8 106.4 194.1 104.6 C195.1 103.1 195.4 101.2 195.7 99.7 C195.9 97.6 198 96.3 200.6 95 Z" fill="#ffffff"/><path d="M248.6 95 C246.5 96.6 245.5 98.1 245.7 100.2 C246 102.3 248.1 103.8 250.4 104.9 C252.8 106.4 254.1 108.8 254.1 112.9 C254.1 117.4 250.4 121 246 121 C241.6 121 237.9 117.4 237.9 112.9 C237.9 109.3 239.8 106.4 242.1 104.6 C243.1 103.1 243.4 101.2 243.7 99.7 C243.9 97.6 246 96.3 248.6 95 Z" fill="#ffffff"/><path d="M-15.4 129 C-17.5 130.6 -18.5 132.1 -18.3 134.2 C-18 136.3 -15.9 137.8 -13.6 138.9 C-11.2 140.4 -9.9 142.8 -9.9 146.9 C-9.9 151.4 -13.6 155 -18 155 C-22.4 155 -26.1 151.4 -26.1 146.9 C-26.1 143.3 -24.2 140.4 -21.9 138.6 C-20.9 137.1 -20.6 135.2 -20.3 133.7 C-20.1 131.6 -18 130.3 -15.4 129 Z" fill="#ffffff"/><path d="M32.6 129 C30.5 130.6 29.5 132.1 29.7 134.2 C30 136.3 32.1 137.8 34.4 138.9 C36.8 140.4 38.1 142.8 38.1 146.9 C38.1 151.4 34.4 155 30 155 C25.6 155 21.9 151.4 21.9 146.9 C21.9 143.3 23.8 140.4 26.1 138.6 C27.1 137.1 27.4 135.2 27.7 133.7 C27.9 131.6 30 130.3 32.6 129 Z" fill="#ffffff"/><path d="M80.6 129 C78.5 130.6 77.5 132.1 77.7 134.2 C78 136.3 80.1 137.8 82.4 138.9 C84.8 140.4 86.1 142.8 86.1 146.9 C86.1 151.4 82.4 155 78 155 C73.6 155 69.9 151.4 69.9 146.9 C69.9 143.3 71.8 140.4 74.1 138.6 C75.1 137.1 75.4 135.2 75.7 133.7 C75.9 131.6 78 130.3 80.6 129 Z" fill="#ffffff"/><path d="M128.6 129 C126.5 130.6 125.5 132.1 125.7 134.2 C126 136.3 128.1 137.8 130.4 138.9 C132.8 140.4 134.1 142.8 134.1 146.9 C134.1 151.4 130.4 155 126 155 C121.6 155 117.9 151.4 117.9 146.9 C117.9 143.3 119.8 140.4 122.1 138.6 C123.1 137.1 123.4 135.2 123.7 133.7 C123.9 131.6 126 130.3 128.6 129 Z" fill="#ffffff"/><path d="M176.6 129 C174.5 130.6 173.5 132.1 173.7 134.2 C174 136.3 176.1 137.8 178.4 138.9 C180.8 140.4 182.1 142.8 182.1 146.9 C182.1 151.4 178.4 155 174 155 C169.6 155 165.9 151.4 165.9 146.9 C165.9 143.3 167.8 140.4 170.1 138.6 C171.1 137.1 171.4 135.2 171.7 133.7 C171.9 131.6 174 130.3 176.6 129 Z" fill="#ffffff"/><path d="M224.6 129 C222.5 130.6 221.5 132.1 221.7 134.2 C222 136.3 224.1 137.8 226.4 138.9 C228.8 140.4 230.1 142.8 230.1 146.9 C230.1 151.4 226.4 155 222 155 C217.6 155 213.9 151.4 213.9 146.9 C213.9 143.3 215.8 140.4 218.1 138.6 C219.1 137.1 219.4 135.2 219.7 133.7 C219.9 131.6 222 130.3 224.6 129 Z" fill="#ffffff"/><path d="M8.6 163 C6.5 164.6 5.5 166.1 5.7 168.2 C6 170.3 8.1 171.8 10.4 172.9 C12.8 174.4 14.1 176.8 14.1 180.9 C14.1 185.4 10.4 189 6 189 C1.6 189 -2.1 185.4 -2.1 180.9 C-2.1 177.3 -0.2 174.4 2.1 172.6 C3.1 171.1 3.4 169.2 3.7 167.7 C3.9 165.6 6 164.3 8.6 163 Z" fill="#ffffff"/><path d="M56.6 163 C54.5 164.6 53.5 166.1 53.7 168.2 C54 170.3 56.1 171.8 58.4 172.9 C60.8 174.4 62.1 176.8 62.1 180.9 C62.1 185.4 58.4 189 54 189 C49.6 189 45.9 185.4 45.9 180.9 C45.9 177.3 47.8 174.4 50.1 172.6 C51.1 171.1 51.4 169.2 51.7 167.7 C51.9 165.6 54 164.3 56.6 163 Z" fill="#ffffff"/><path d="M104.6 163 C102.5 164.6 101.5 166.1 101.7 168.2 C102 170.3 104.1 171.8 106.4 172.9 C108.8 174.4 110.1 176.8 110.1 180.9 C110.1 185.4 106.4 189 102 189 C97.6 189 93.9 185.4 93.9 180.9 C93.9 177.3 95.8 174.4 98.1 172.6 C99.1 171.1 99.4 169.2 99.7 167.7 C99.9 165.6 102 164.3 104.6 163 Z" fill="#ffffff"/><path d="M152.6 163 C150.5 164.6 149.5 166.1 149.7 168.2 C150 170.3 152.1 171.8 154.4 172.9 C156.8 174.4 158.1 176.8 158.1 180.9 C158.1 185.4 154.4 189 150 189 C145.6 189 141.9 185.4 141.9 180.9 C141.9 177.3 143.8 174.4 146.1 172.6 C147.1 171.1 147.4 169.2 147.7 167.7 C147.9 165.6 150 164.3 152.6 163 Z" fill="#ffffff"/><path d="M200.6 163 C198.5 164.6 197.5 166.1 197.7 168.2 C198 170.3 200.1 171.8 202.4 172.9 C204.8 174.4 206.1 176.8 206.1 180.9 C206.1 185.4 202.4 189 198 189 C193.6 189 189.9 185.4 189.9 180.9 C189.9 177.3 191.8 174.4 194.1 172.6 C195.1 171.1 195.4 169.2 195.7 167.7 C195.9 165.6 198 164.3 200.6 163 Z" fill="#ffffff"/><path d="M248.6 163 C246.5 164.6 245.5 166.1 245.7 168.2 C246 170.3 248.1 171.8 250.4 172.9 C252.8 174.4 254.1 176.8 254.1 180.9 C254.1 185.4 250.4 189 246 189 C241.6 189 237.9 185.4 237.9 180.9 C237.9 177.3 239.8 174.4 242.1 172.6 C243.1 171.1 243.4 169.2 243.7 167.7 C243.9 165.6 246 164.3 248.6 163 Z" fill="#ffffff"/><path d="M-15.4 197 C-17.5 198.6 -18.5 200.1 -18.3 202.2 C-18 204.3 -15.9 205.8 -13.6 206.9 C-11.2 208.4 -9.9 210.8 -9.9 214.9 C-9.9 219.4 -13.6 223 -18 223 C-22.4 223 -26.1 219.4 -26.1 214.9 C-26.1 211.3 -24.2 208.4 -21.9 206.6 C-20.9 205.1 -20.6 203.2 -20.3 201.7 C-20.1 199.6 -18 198.3 -15.4 197 Z" fill="#ffffff"/><path d="M32.6 197 C30.5 198.6 29.5 200.1 29.7 202.2 C30 204.3 32.1 205.8 34.4 206.9 C36.8 208.4 38.1 210.8 38.1 214.9 C38.1 219.4 34.4 223 30 223 C25.6 223 21.9 219.4 21.9 214.9 C21.9 211.3 23.8 208.4 26.1 206.6 C27.1 205.1 27.4 203.2 27.7 201.7 C27.9 199.6 30 198.3 32.6 197 Z" fill="#ffffff"/><path d="M80.6 197 C78.5 198.6 77.5 200.1 77.7 202.2 C78 204.3 80.1 205.8 82.4 206.9 C84.8 208.4 86.1 210.8 86.1 214.9 C86.1 219.4 82.4 223 78 223 C73.6 223 69.9 219.4 69.9 214.9 C69.9 211.3 71.8 208.4 74.1 206.6 C75.1 205.1 75.4 203.2 75.7 201.7 C75.9 199.6 78 198.3 80.6 197 Z" fill="#ffffff"/><path d="M128.6 197 C126.5 198.6 125.5 200.1 125.7 202.2 C126 204.3 128.1 205.8 130.4 206.9 C132.8 208.4 134.1 210.8 134.1 214.9 C134.1 219.4 130.4 223 126 223 C121.6 223 117.9 219.4 117.9 214.9 C117.9 211.3 119.8 208.4 122.1 206.6 C123.1 205.1 123.4 203.2 123.7 201.7 C123.9 199.6 126 198.3 128.6 197 Z" fill="#ffffff"/><path d="M176.6 197 C174.5 198.6 173.5 200.1 173.7 202.2 C174 204.3 176.1 205.8 178.4 206.9 C180.8 208.4 182.1 210.8 182.1 214.9 C182.1 219.4 178.4 223 174 223 C169.6 223 165.9 219.4 165.9 214.9 C165.9 211.3 167.8 208.4 170.1 206.6 C171.1 205.1 171.4 203.2 171.7 201.7 C171.9 199.6 174 198.3 176.6 197 Z" fill="#ffffff"/><path d="M224.6 197 C222.5 198.6 221.5 200.1 221.7 202.2 C222 204.3 224.1 205.8 226.4 206.9 C228.8 208.4 230.1 210.8 230.1 214.9 C230.1 219.4 226.4 223 222 223 C217.6 223 213.9 219.4 213.9 214.9 C213.9 211.3 215.8 208.4 218.1 206.6 C219.1 205.1 219.4 203.2 219.7 201.7 C219.9 199.6 222 198.3 224.6 197 Z" fill="#ffffff"/><path d="M8.6 231 C6.5 232.6 5.5 234.1 5.7 236.2 C6 238.3 8.1 239.8 10.4 240.9 C12.8 242.4 14.1 244.8 14.1 248.9 C14.1 253.4 10.4 257 6 257 C1.6 257 -2.1 253.4 -2.1 248.9 C-2.1 245.3 -0.2 242.4 2.1 240.6 C3.1 239.1 3.4 237.2 3.7 235.7 C3.9 233.6 6 232.3 8.6 231 Z" fill="#ffffff"/><path d="M56.6 231 C54.5 232.6 53.5 234.1 53.7 236.2 C54 238.3 56.1 239.8 58.4 240.9 C60.8 242.4 62.1 244.8 62.1 248.9 C62.1 253.4 58.4 257 54 257 C49.6 257 45.9 253.4 45.9 248.9 C45.9 245.3 47.8 242.4 50.1 240.6 C51.1 239.1 51.4 237.2 51.7 235.7 C51.9 233.6 54 232.3 56.6 231 Z" fill="#ffffff"/><path d="M104.6 231 C102.5 232.6 101.5 234.1 101.7 236.2 C102 238.3 104.1 239.8 106.4 240.9 C108.8 242.4 110.1 244.8 110.1 248.9 C110.1 253.4 106.4 257 102 257 C97.6 257 93.9 253.4 93.9 248.9 C93.9 245.3 95.8 242.4 98.1 240.6 C99.1 239.1 99.4 237.2 99.7 235.7 C99.9 233.6 102 232.3 104.6 231 Z" fill="#ffffff"/><path d="M152.6 231 C150.5 232.6 149.5 234.1 149.7 236.2 C150 238.3 152.1 239.8 154.4 240.9 C156.8 242.4 158.1 244.8 158.1 248.9 C158.1 253.4 154.4 257 150 257 C145.6 257 141.9 253.4 141.9 248.9 C141.9 245.3 143.8 242.4 146.1 240.6 C147.1 239.1 147.4 237.2 147.7 235.7 C147.9 233.6 150 232.3 152.6 231 Z" fill="#ffffff"/><path d="M200.6 231 C198.5 232.6 197.5 234.1 197.7 236.2 C198 238.3 200.1 239.8 202.4 240.9 C204.8 242.4 206.1 244.8 206.1 248.9 C206.1 253.4 202.4 257 198 257 C193.6 257 189.9 253.4 189.9 248.9 C189.9 245.3 191.8 242.4 194.1 240.6 C195.1 239.1 195.4 237.2 195.7 235.7 C195.9 233.6 198 232.3 200.6 231 Z" fill="#ffffff"/><path d="M248.6 231 C246.5 232.6 245.5 234.1 245.7 236.2 C246 238.3 248.1 239.8 250.4 240.9 C252.8 242.4 254.1 244.8 254.1 248.9 C254.1 253.4 250.4 257 246 257 C241.6 257 237.9 253.4 237.9 248.9 C237.9 245.3 239.8 242.4 242.1 240.6 C243.1 239.1 243.4 237.2 243.7 235.7 C243.9 233.6 246 232.3 248.6 231 Z" fill="#ffffff"/></g><clipPath id="blason-part-2"><path d="M 100 0 H 200 V 240 H 100 Z"/></clipPath><g clip-path="url(#blason-part-2)"><path d="M-15.4 -7 C-17.5 -5.4 -18.5 -3.9 -18.3 -1.8 C-18 0.3 -15.9 1.8 -13.6 2.9 C-11.2 4.4 -9.9 6.8 -9.9 10.9 C-9.9 15.4 -13.6 19 -18 19 C-22.4 19 -26.1 15.4 -26.1 10.9 C-26.1 7.3 -24.2 4.4 -21.9 2.6 C-20.9 1.1 -20.6 -0.8 -20.3 -2.3 C-20.1 -4.4 -18 -5.7 -15.4 -7 Z" fill="#ffd700"/><path d="M32.6 -7 C30.5 -5.4 29.5 -3.9 29.7 -1.8 C30 0.3 32.1 1.8 34.4 2.9 C36.8 4.4 38.1 6.8 38.1 10.9 C38.1 15.4 34.4 19 30 19 C25.6 19 21.9 15.4 21.9 10.9 C21.9 7.3 23.8 4.4 26.1 2.6 C27.1 1.1 27.4 -0.8 27.7 -2.3 C27.9 -4.4 30 -5.7 32.6 -7 Z" fill="#ffd700"/><path d="M80.6 -7 C78.5 -5.4 77.5 -3.9 77.7 -1.8 C78 0.3 80.1 1.8 82.4 2.9 C84.8 4.4 86.1 6.8 86.1 10.9 C86.1 15.4 82.4 19 78 19 C73.6 19 69.9 15.4 69.9 10.9 C69.9 7.3 71.8 4.4 74.1 2.6 C75.1 1.1 75.4 -0.8 75.7 -2.3 C75.9 -4.4 78 -5.7 80.6 -7 Z" fill="#ffd700"/><path d="M128.6 -7 C126.5 -5.4 125.5 -3.9 125.7 -1.8 C126 0.3 128.1 1.8 130.4 2.9 C132.8 4.4 134.1 6.8 134.1 10.9 C134.1 15.4 130.4 19 126 19 C121.6 19 117.9 15.4 117.9 10.9 C117.9 7.3 119.8 4.4 122.1 2.6 C123.1 1.1 123.4 -0.8 123.7 -2.3 C123.9 -4.4 126 -5.7 128.6 -7 Z" fill="#ffd700"/><path d="M176.6 -7 C174.5 -5.4 173.5 -3.9 173.7 -1.8 C174 0.3 176.1 1.8 178.4 2.9 C180.8 4.4 182.1 6.8 182.1 10.9 C182.1 15.4 178.4 19 174 19 C169.6 19 165.9 15.4 165.9 10.9 C165.9 7.3 167.8 4.4 170.1 2.6 C171.1 1.1 171.4 -0.8 171.7 -2.3 C171.9 -4.4 174 -5.7 176.6 -7 Z" fill="#ffd700"/><path d="M224.6 -7 C222.5 -5.4 221.5 -3.9 221.7 -1.8 C222 0.3 224.1 1.8 226.4 2.9 C228.8 4.4 230.1 6.8 230.1 10.9 C230.1 15.4 226.4 19 222 19 C217.6 19 213.9 15.4 213.9 10.9 C213.9 7.3 215.8 4.4 218.1 2.6 C219.1 1.1 219.4 -0.8 219.7 -2.3 C219.9 -4.4 222 -5.7 224.6 -7 Z" fill="#ffd700"/><path d="M8.6 27 C6.5 28.6 5.5 30.1 5.7 32.2 C6 34.3 8.1 35.8 10.4 36.9 C12.8 38.4 14.1 40.8 14.1 44.9 C14.1 49.4 10.4 53 6 53 C1.6 53 -2.1 49.4 -2.1 44.9 C-2.1 41.3 -0.2 38.4 2.1 36.6 C3.1 35.1 3.4 33.2 3.7 31.7 C3.9 29.6 6 28.3 8.6 27 Z" fill="#ffd700"/><path d="M56.6 27 C54.5 28.6 53.5 30.1 53.7 32.2 C54 34.3 56.1 35.8 58.4 36.9 C60.8 38.4 62.1 40.8 62.1 44.9 C62.1 49.4 58.4 53 54 53 C49.6 53 45.9 49.4 45.9 44.9 C45.9 41.3 47.8 38.4 50.1 36.6 C51.1 35.1 51.4 33.2 51.7 31.7 C51.9 29.6 54 28.3 56.6 27 Z" fill="#ffd700"/><path d="M104.6 27 C102.5 28.6 101.5 30.1 101.7 32.2 C102 34.3 104.1 35.8 106.4 36.9 C108.8 38.4 110.1 40.8 110.1 44.9 C110.1 49.4 106.4 53 102 53 C97.6 53 93.9 49.4 93.9 44.9 C93.9 41.3 95.8 38.4 98.1 36.6 C99.1 35.1 99.4 33.2 99.7 31.7 C99.9 29.6 102 28.3 104.6 27 Z" fill="#ffd700"/><path d="M152.6 27 C150.5 28.6 149.5 30.1 149.7 32.2 C150 34.3 152.1 35.8 154.4 36.9 C156.8 38.4 158.1 40.8 158.1 44.9 C158.1 49.4 154.4 53 150 53 C145.6 53 141.9 49.4 141.9 44.9 C141.9 41.3 143.8 38.4 146.1 36.6 C147.1 35.1 147.4 33.2 147.7 31.7 C147.9 29.6 150 28.3 152.6 27 Z" fill="#ffd700"/><path d="M200.6 27 C198.5 28.6 197.5 30.1 197.7 32.2 C198 34.3 200.1 35.8 202.4 36.9 C204.8 38.4 206.1 40.8 206.1 44.9 C206.1 49.4 202.4 53 198 53 C193.6 53 189.9 49.4 189.9 44.9 C189.9 41.3 191.8 38.4 194.1 36.6 C195.1 35.1 195.4 33.2 195.7 31.7 C195.9 29.6 198 28.3 200.6 27 Z" fill="#ffd700"/><path d="M248.6 27 C246.5 28.6 245.5 30.1 245.7 32.2 C246 34.3 248.1 35.8 250.4 36.9 C252.8 38.4 254.1 40.8 254.1 44.9 C254.1 49.4 250.4 53 246 53 C241.6 53 237.9 49.4 237.9 44.9 C237.9 41.3 239.8 38.4 242.1 36.6 C243.1 35.1 243.4 33.2 243.7 31.7 C243.9 29.6 246 28.3 248.6 27 Z" fill="#ffd700"/><path d="M-15.4 61 C-17.5 62.6 -18.5 64.1 -18.3 66.2 C-18 68.3 -15.9 69.8 -13.6 70.9 C-11.2 72.4 -9.9 74.8 -9.9 78.9 C-9.9 83.4 -13.6 87 -18 87 C-22.4 87 -26.1 83.4 -26.1 78.9 C-26.1 75.3 -24.2 72.4 -21.9 70.6 C-20.9 69.1 -20.6 67.2 -20.3 65.7 C-20.1 63.6 -18 62.3 -15.4 61 Z" fill="#ffd700"/><path d="M32.6 61 C30.5 62.6 29.5 64.1 29.7 66.2 C30 68.3 32.1 69.8 34.4 70.9 C36.8 72.4 38.1 74.8 38.1 78.9 C38.1 83.4 34.4 87 30 87 C25.6 87 21.9 83.4 21.9 78.9 C21.9 75.3 23.8 72.4 26.1 70.6 C27.1 69.1 27.4 67.2 27.7 65.7 C27.9 63.6 30 62.3 32.6 61 Z" fill="#ffd700"/><path d="M80.6 61 C78.5 62.6 77.5 64.1 77.7 66.2 C78 68.3 80.1 69.8 82.4 70.9 C84.8 72.4 86.1 74.8 86.1 78.9 C86.1 83.4 82.4 87 78 87 C73.6 87 69.9 83.4 69.9 78.9 C69.9 75.3 71.8 72.4 74.1 70.6 C75.1 69.1 75.4 67.2 75.7 65.7 C75.9 63.6 78 62.3 80.6 61 Z" fill="#ffd700"/><path d="M128.6 61 C126.5 62.6 125.5 64.1 125.7 66.2 C126 68.3 128.1 69.8 130.4 70.9 C132.8 72.4 134.1 74.8 134.1 78.9 C134.1 83.4 130.4 87 126 87 C121.6 87 117.9 83.4 117.9 78.9 C117.9 75.3 119.8 72.4 122.1 70.6 C123.1 69.1 123.4 67.2 123.7 65.7 C123.9 63.6 126 62.3 128.6 61 Z" fill="#ffd700"/><path d="M176.6 61 C174.5 62.6 173.5 64.1 173.7 66.2 C174 68.3 176.1 69.8 178.4 70.9 C180.8 72.4 182.1 74.8 182.1 78.9 C182.1 83.4 178.4 87 174 87 C169.6 87 165.9 83.4 165.9 78.9 C165.9 75.3 167.8 72.4 170.1 70.6 C171.1 69.1 171.4 67.2 171.7 65.7 C171.9 63.6 174 62.3 176.6 61 Z" fill="#ffd700"/><path d="M224.6 61 C222.5 62.6 221.5 64.1 221.7 66.2 C222 68.3 224.1 69.8 226.4 70.9 C228.8 72.4 230.1 74.8 230.1 78.9 C230.1 83.4 226.4 87 222 87 C217.6 87 213.9 83.4 213.9 78.9 C213.9 75.3 215.8 72.4 218.1 70.6 C219.1 69.1 219.4 67.2 219.7 65.7 C219.9 63.6 222 62.3 224.6 61 Z" fill="#ffd700"/><path d="M8.6 95 C6.5 96.6 5.5 98.1 5.7 100.2 C6 102.3 8.1 103.8 10.4 104.9 C12.8 106.4 14.1 108.8 14.1 112.9 C14.1 117.4 10.4 121 6 121 C1.6 121 -2.1 117.4 -2.1 112.9 C-2.1 109.3 -0.2 106.4 2.1 104.6 C3.1 103.1 3.4 101.2 3.7 99.7 C3.9 97.6 6 96.3 8.6 95 Z" fill="#ffd700"/><path d="M56.6 95 C54.5 96.6 53.5 98.1 53.7 100.2 C54 102.3 56.1 103.8 58.4 104.9 C60.8 106.4 62.1 108.8 62.1 112.9 C62.1 117.4 58.4 121 54 121 C49.6 121 45.9 117.4 45.9 112.9 C45.9 109.3 47.8 106.4 50.1 104.6 C51.1 103.1 51.4 101.2 51.7 99.7 C51.9 97.6 54 96.3 56.6 95 Z" fill="#ffd700"/><path d="M104.6 95 C102.5 96.6 101.5 98.1 101.7 100.2 C102 102.3 104.1 103.8 106.4 104.9 C108.8 106.4 110.1 108.8 110.1 112.9 C110.1 117.4 106.4 121 102 121 C97.6 121 93.9 117.4 93.9 112.9 C93.9 109.3 95.8 106.4 98.1 104.6 C99.1 103.1 99.4 101.2 99.7 99.7 C99.9 97.6 102 96.3 104.6 95 Z" fill="#ffd700"/><path d="M152.6 95 C150.5 96.6 149.5 98.1 149.7 100.2 C150 102.3 152.1 103.8 154.4 104.9 C156.8 106.4 158.1 108.8 158.1 112.9 C158.1 117.4 154.4 121 150 121 C145.6 121 141.9 117.4 141.9 112.9 C141.9 109.3 143.8 106.4 146.1 104.6 C147.1 103.1 147.4 101.2 147.7 99.7 C147.9 97.6 150 96.3 152.6 95 Z" fill="#ffd700"/><path d="M200.6 95 C198.5 96.6 197.5 98.1 197.7 100.2 C198 102.3 200.1 103.8 202.4 104.9 C204.8 106.4 206.1 108.8 206.1 112.9 C206.1 117.4 202.4 121 198 121 C193.6 121 189.9 117.4 189.9 112.9 C189.9 109.3 191.8 106.4 194.1 104.6 C195.1 103.1 195.4 101.2 195.7 99.7 C195.9 97.6 198 96.3 200.6 95 Z" fill="#ffd700"/><path d="M248.6 95 C246.5 96.6 245.5 98.1 245.7 100.2 C246 102.3 248.1 103.8 250.4 104.9 C252.8 106.4 254.1 108.8 254.1 112.9 C254.1 117.4 250.4 121 246 121 C241.6 121 237.9 117.4 237.9 112.9 C237.9 109.3 239.8 106.4 242.1 104.6 C243.1 103.1 243.4 101.2 243.7 99.7 C243.9 97.6 246 96.3 248.6 95 Z" fill="#ffd700"/><path d="M-15.4 129 C-17.5 130.6 -18.5 132.1 -18.3 134.2 C-18 136.3 -15.9 137.8 -13.6 138.9 C-11.2 140.4 -9.9 142.8 -9.9 146.9 C-9.9 151.4 -13.6 155 -18 155 C-22.4 155 -26.1 151.4 -26.1 146.9 C-26.1 143.3 -24.2 140.4 -21.9 138.6 C-20.9 137.1 -20.6 135.2 -20.3 133.7 C-20.1 131.6 -18 130.3 -15.4 129 Z" fill="#ffd700"/><path d="M32.6 129 C30.5 130.6 29.5 132.1 29.7 134.2 C30 136.3 32.1 137.8 34.4 138.9 C36.8 140.4 38.1 142.8 38.1 146.9 C38.1 151.4 34.4 155 30 155 C25.6 155 21.9 151.4 21.9 146.9 C21.9 143.3 23.8 140.4 26.1 138.6 C27.1 137.1 27.4 135.2 27.7 133.7 C27.9 131.6 30 130.3 32.6 129 Z" fill="#ffd700"/><path d="M80.6 129 C78.5 130.6 77.5 132.1 77.7 134.2 C78 136.3 80.1 137.8 82.4 138.9 C84.8 140.4 86.1 142.8 86.1 146.9 C86.1 151.4 82.4 155 78 155 C73.6 155 69.9 151.4 69.9 146.9 C69.9 143.3 71.8 140.4 74.1 138.6 C75.1 137.1 75.4 135.2 75.7 133.7 C75.9 131.6 78 130.3 80.6 129 Z" fill="#ffd700"/><path d="M128.6 129 C126.5 130.6 125.5 132.1 125.7 134.2 C126 136.3 128.1 137.8 130.4 138.9 C132.8 140.4 134.1 142.8 134.1 146.9 C134.1 151.4 130.4 155 126 155 C121.6 155 117.9 151.4 117.9 146.9 C117.9 143.3 119.8 140.4 122.1 138.6 C123.1 137.1 123.4 135.2 123.7 133.7 C123.9 131.6 126 130.3 128.6 129 Z" fill="#ffd700"/><path d="M176.6 129 C174.5 130.6 173.5 132.1 173.7 134.2 C174 136.3 176.1 137.8 178.4 138.9 C180.8 140.4 182.1 142.8 182.1 146.9 C182.1 151.4 178.4 155 174 155 C169.6 155 165.9 151.4 165.9 146.9 C165.9 143.3 167.8 140.4 170.1 138.6 C171.1 137.1 171.4 135.2 171.7 133.7 C171.9 131.6 174 130.3 176.6 129 Z" fill="#ffd700"/><path d="M224.6 129 C222.5 130.6 221.5 132.1 221.7 134.2 C222 136.3 224.1 137.8 226.4 138.9 C228.8 140.4 230.1 142.8 230.1 146.9 C230.1 151.4 226.4 155 222 155 C217.6 155 213.9 151.4 213.9 146.9 C213.9 143.3 215.8 140.4 218.1 138.6 C219.1 137.1 219.4 135.2 219.7 133.7 C219.9 131.6 222 130.3 224.6 129 Z" fill="#ffd700"/><path d="M8.6 163 C6.5 164.6 5.5 166.1 5.7 168.2 C6 170.3 8.1 171.8 10.4 172.9 C12.8 174.4 14.1 176.8 14.1 180.9 C14.1 185.4 10.4 189 6 189 C1.6 189 -2.1 185.4 -2.1 180.9 C-2.1 177.3 -0.2 174.4 2.1 172.6 C3.1 171.1 3.4 169.2 3.7 167.7 C3.9 165.6 6 164.3 8.6 163 Z" fill="#ffd700"/><path d="M56.6 163 C54.5 164.6 53.5 166.1 53.7 168.2 C54 170.3 56.1 171.8 58.4 172.9 C60.8 174.4 62.1 176.8 62.1 180.9 C62.1 185.4 58.4 189 54 189 C49.6 189 45.9 185.4 45.9 180.9 C45.9 177.3 47.8 174.4 50.1 172.6 C51.1 171.1 51.4 169.2 51.7 167.7 C51.9 165.6 54 164.3 56.6 163 Z" fill="#ffd700"/><path d="M104.6 163 C102.5 164.6 101.5 166.1 101.7 168.2 C102 170.3 104.1 171.8 106.4 172.9 C108.8 174.4 110.1 176.8 110.1 180.9 C110.1 185.4 106.4 189 102 189 C97.6 189 93.9 185.4 93.9 180.9 C93.9 177.3 95.8 174.4 98.1 172.6 C99.1 171.1 99.4 169.2 99.7 167.7 C99.9 165.6 102 164.3 104.6 163 Z" fill="#ffd700"/><path d="M152.6 163 C150.5 164.6 149.5 166.1 149.7 168.2 C150 170.3 152.1 171.8 154.4 172.9 C156.8 174.4 158.1 176.8 158.1 180.9 C158.1 185.4 154.4 189 150 189 C145.6 189 141.9 185.4 141.9 180.9 C141.9 177.3 143.8 174.4 146.1 172.6 C147.1 171.1 147.4 169.2 147.7 167.7 C147.9 165.6 150 164.3 152.6 163 Z" fill="#ffd700"/><path d="M200.6 163 C198.5 164.6 197.5 166.1 197.7 168.2 C198 170.3 200.1 171.8 202.4 172.9 C204.8 174.4 206.1 176.8 206.1 180.9 C206.1 185.4 202.4 189 198 189 C193.6 189 189.9 185.4 189.9 180.9 C189.9 177.3 191.8 174.4 194.1 172.6 C195.1 171.1 195.4 169.2 195.7 167.7 C195.9 165.6 198 164.3 200.6 163 Z" fill="#ffd700"/><path d="M248.6 163 C246.5 164.6 245.5 166.1 245.7 168.2 C246 170.3 248.1 171.8 250.4 172.9 C252.8 174.4 254.1 176.8 254.1 180.9 C254.1 185.4 250.4 189 246 189 C241.6 189 237.9 185.4 237.9 180.9 C237.9 177.3 239.8 174.4 242.1 172.6 C243.1 171.1 243.4 169.2 243.7 167.7 C243.9 165.6 246 164.3 248.6 163 Z" fill="#ffd700"/><path d="M-15.4 197 C-17.5 198.6 -18.5 200.1 -18.3 202.2 C-18 204.3 -15.9 205.8 -13.6 206.9 C-11.2 208.4 -9.9 210.8 -9.9 214.9 C-9.9 219.4 -13.6 223 -18 223 C-22.4 223 -26.1 219.4 -26.1 214.9 C-26.1 211.3 -24.2 208.4 -21.9 206.6 C-20.9 205.1 -20.6 203.2 -20.3 201.7 C-20.1 199.6 -18 198.3 -15.4 197 Z" fill="#ffd700"/><path d="M32.6 197 C30.5 198.6 29.5 200.1 29.7 202.2 C30 204.3 32.1 205.8 34.4 206.9 C36.8 208.4 38.1 210.8 38.1 214.9 C38.1 219.4 34.4 223 30 223 C25.6 223 21.9 219.4 21.9 214.9 C21.9 211.3 23.8 208.4 26.1 206.6 C27.1 205.1 27.4 203.2 27.7 201.7 C27.9 199.6 30 198.3 32.6 197 Z" fill="#ffd700"/><path d="M80.6 197 C78.5 198.6 77.5 200.1 77.7 202.2 C78 204.3 80.1 205.8 82.4 206.9 C84.8 208.4 86.1 210.8 86.1 214.9 C86.1 219.4 82.4 223 78 223 C73.6 223 69.9 219.4 69.9 214.9 C69.9 211.3 71.8 208.4 74.1 206.6 C75.1 205.1 75.4 203.2 75.7 201.7 C75.9 199.6 78 198.3 80.6 197 Z" fill="#ffd700"/><path d="M128.6 197 C126.5 198.6 125.5 200.1 125.7 202.2 C126 204.3 128.1 205.8 130.4 206.9 C132.8 208.4 134.1 210.8 134.1 214.9 C134.1 219.4 130.4 223 126 223 C121.6 223 117.9 219.4 117.9 214.9 C117.9 211.3 119.8 208.4 122.1 206.6 C123.1 205.1 123.4 203.2 123.7 201.7 C123.9 199.6 126 198.3 128.6 197 Z" fill="#ffd700"/><path d="M176.6 197 C174.5 198.6 173.5 200.1 173.7 202.2 C174 204.3 176.1 205.8 178.4 206.9 C180.8 208.4 182.1 210.8 182.1 214.9 C182.1 219.4 178.4 223 174 223 C169.6 223 165.9 219.4 165.9 214.9 C165.9 211.3 167.8 208.4 170.1 206.6 C171.1 205.1 171.4 203.2 171.7 201.7 C171.9 199.6 174 198.3 176.6 197 Z" fill="#ffd700"/><path d="M224.6 197 C222.5 198.6 221.5 200.1 221.7 202.2 C222 204.3 224.1 205.8 226.4 206.9 C228.8 208.4 230.1 210.8 230.1 214.9 C230.1 219.4 226.4 223 222 223 C217.6 223 213.9 219.4 213.9 214.9 C213.9 211.3 215.8 208.4 218.1 206.6 C219.1 205.1 219.4 203.2 219.7 201.7 C219.9 199.6 222 198.3 224.6 197 Z" fill="#ffd700"/><path d="M8.6 231 C6.5 232.6 5.5 234.1 5.7 236.2 C6 238.3 8.1 239.8 10.4 240.9 C12.8 242.4 14.1 244.8 14.1 248.9 C14.1 253.4 10.4 257 6 257 C1.6 257 -2.1 253.4 -2.1 248.9 C-2.1 245.3 -0.2 242.4 2.1 240.6 C3.1 239.1 3.4 237.2 3.7 235.7 C3.9 233.6 6 232.3 8.6 231 Z" fill="#ffd700"/><path d="M56.6 231 C54.5 232.6 53.5 234.1 53.7 236.2 C54 238.3 56.1 239.8 58.4 240.9 C60.8 242.4 62.1 244.8 62.1 248.9 C62.1 253.4 58.4 257 54 257 C49.6 257 45.9 253.4 45.9 248.9 C45.9 245.3 47.8 242.4 50.1 240.6 C51.1 239.1 51.4 237.2 51.7 235.7 C51.9 233.6 54 232.3 56.6 231 Z" fill="#ffd700"/><path d="M104.6 231 C102.5 232.6 101.5 234.1 101.7 236.2 C102 238.3 104.1 239.8 106.4 240.9 C108.8 242.4 110.1 244.8 110.1 248.9 C110.1 253.4 106.4 257 102 257 C97.6 257 93.9 253.4 93.9 248.9 C93.9 245.3 95.8 242.4 98.1 240.6 C99.1 239.1 99.4 237.2 99.7 235.7 C99.9 233.6 102 232.3 104.6 231 Z" fill="#ffd700"/><path d="M152.6 231 C150.5 232.6 149.5 234.1 149.7 236.2 C150 238.3 152.1 239.8 154.4 240.9 C156.8 242.4 158.1 244.8 158.1 248.9 C158.1 253.4 154.4 257 150 257 C145.6 257 141.9 253.4 141.9 248.9 C141.9 245.3 143.8 242.4 146.1 240.6 C147.1 239.1 147.4 237.2 147.7 235.7 C147.9 233.6 150 232.3 152.6 231 Z" fill="#ffd700"/><path d="M200.6 231 C198.5 232.6 197.5 234.1 197.7 236.2 C198 238.3 200.1 239.8 202.4 240.9 C204.8 242.4 206.1 244.8 206.1 248.9 C206.1 253.4 202.4 257 198 257 C193.6 257 189.9 253.4 189.9 248.9 C189.9 245.3 191.8 242.4 194.1 240.6 C195.1 239.1 195.4 237.2 195.7 235.7 C195.9 233.6 198 232.3 200.6 231 Z" fill="#ffd700"/><path d="M248.6 231 C246.5 232.6 245.5 234.1 245.7 236.2 C246 238.3 248.1 239.8 250.4 240.9 C252.8 242.4 254.1 244.8 254.1 248.9 C254.1 253.4 250.4 257 246 257 C241.6 257 237.9 253.4 237.9 248.9 C237.9 245.3 239.8 242.4 242.1 240.6 C243.1 239.1 243.4 237.2 243.7 235.7 C243.9 233.6 246 232.3 248.6 231 Z" fill="#ffd700"/></g></g><path d="M6 6 H194 V128 C194 186 150 220 100 234 C50 220 6 186 6 128 Z" fill="none" stroke="#6e7781" stroke-width="3"/></svg>